<svg width="64" height="33" viewBox="0 0 64 33" fill="none" xmlns="http://www.w3.org/2000/svg">
<path d="M16.3439 5.39209L10.7986 19.5581L5.25339 5.39209H0L7.78846 25.2876H13.8088L21.5973 5.39209H16.3439Z" fill="#290852"/>
<path d="M31.9617 4.5C26.1212 4.5 21.3701 9.1963 21.3701 14.9694C21.3701 20.7425 26.1212 25.4388 31.9617 25.4388C37.8022 25.4388 42.5534 20.7425 42.5534 14.9694C42.5534 9.1963 37.8022 4.5 31.9617 4.5ZM31.9617 20.5949C28.8226 20.5949 26.2706 18.0723 26.2706 14.9694C26.2706 11.8665 28.8226 9.3439 31.9617 9.3439C35.1009 9.3439 37.6529 11.8665 37.6529 14.9694C37.6529 18.0723 35.1009 20.5949 31.9617 20.5949Z" fill="#290852"/>
<path d="M58.0995 5.39209C58.0961 5.75773 57.9876 10.4138 56.0294 15.4254C55.3473 17.1764 54.5226 18.7463 53.5724 20.1519L47.5554 5.39209H42.2715L49.931 24.1739C47.8303 25.8914 45.3597 27.1058 42.5226 27.8001L43.7002 32.4998C62.5554 27.8874 62.9898 6.12002 63 5.39209H58.0995Z" fill="#290852"/>
</svg>
