<svg width="24" height="24" viewBox="0 0 24 24" fill="none" xmlns="http://www.w3.org/2000/svg">
<path d="M18.3653 18.3653C20.1859 16.5447 18.6467 12.0537 14.9274 8.33443C11.2081 4.61511 6.71711 3.0759 4.8965 4.89651C3.07589 6.71712 4.6151 11.2081 8.33442 14.9274C12.0537 18.6467 16.5447 20.186 18.3653 18.3653Z" fill="#FF9D5C" stroke="#290852" stroke-width="1.5" stroke-linecap="round" stroke-linejoin="round"/>
<path d="M14.9274 14.9274C18.6467 11.2081 20.1859 6.71711 18.3653 4.89651C16.5447 3.0759 12.0537 4.61511 8.33442 8.33443C4.6151 12.0537 3.07589 16.5447 4.8965 18.3653C6.71711 20.186 11.2081 18.6467 14.9274 14.9274Z" stroke="#290852" stroke-width="1.5" stroke-linecap="round" stroke-linejoin="round"/>
<path d="M11.6311 13.1309C12.4595 13.1309 13.1311 12.4593 13.1311 11.6309C13.1311 10.8025 12.4595 10.1309 11.6311 10.1309C10.8026 10.1309 10.1311 10.8025 10.1311 11.6309C10.1311 12.4593 10.8026 13.1309 11.6311 13.1309Z" fill="#FF9D5C" stroke="#290852" stroke-width="1.5" stroke-linecap="round" stroke-linejoin="round"/>
</svg>
