<svg width="24" height="24" viewBox="0 0 24 24" fill="none" xmlns="http://www.w3.org/2000/svg">
<path d="M19.2 10.8C19.2 10.4817 19.0736 10.1765 18.8485 9.95148C18.6235 9.72643 18.3183 9.6 18 9.6H14.4V6C14.4 5.68174 14.2736 5.37652 14.0485 5.15148C13.8235 4.92643 13.5183 4.8 13.2 4.8H10.8C10.4817 4.8 10.1765 4.92643 9.95148 5.15148C9.72643 5.37652 9.6 5.68174 9.6 6V9.6H6C5.68174 9.6 5.37652 9.72643 5.15147 9.95148C4.92643 10.1765 4.8 10.4817 4.8 10.8V13.2C4.8 13.5183 4.92643 13.8235 5.15147 14.0485C5.37652 14.2736 5.68174 14.4 6 14.4H9.6V18C9.6 18.3183 9.72643 18.6235 9.95148 18.8485C10.1765 19.0736 10.4817 19.2 10.8 19.2H13.2C13.5183 19.2 13.8235 19.0736 14.0485 18.8485C14.2736 18.6235 14.4 18.3183 14.4 18V14.4H18C18.3183 14.4 18.6235 14.2736 18.8485 14.0485C19.0736 13.8235 19.2 13.5183 19.2 13.2V10.8Z" fill="#FF9D5C" stroke="#290852" stroke-width="1.5" stroke-linecap="round" stroke-linejoin="round"/>
</svg>
